<?xml version="1.0" encoding="UTF-8"?>
<svg width="189px" height="152px" viewBox="0 0 189 152" version="1.1" xmlns="http://www.w3.org/2000/svg" xmlns:xlink="http://www.w3.org/1999/xlink">
    <!-- Generator: Sketch 46 (44423) - http://www.bohemiancoding.com/sketch -->
    <title>Artboard</title>
    <desc>Created with Sketch.</desc>
    <defs></defs>
    <g id="Page-1" stroke="none" stroke-width="1" fill="none" fill-rule="evenodd">
        <g id="Artboard">
            <g id="Gump_s" transform="translate(1.000000, 1.000000)">
                <polygon id="Stroke-2" stroke="#000000" stroke-linecap="round" stroke-linejoin="round" points="0.094 149.703 187.181 149.703 187.181 0.407 0.094 0.407"></polygon>
                <path d="M171.265,11.278 C169.673,10.698 167.937,10.553 166.056,10.553 C164.175,10.553 162.439,10.844 160.847,11.278 C159.545,11.858 158.243,12.583 157.23,13.307 C156.362,14.032 155.639,14.902 155.06,15.772 C154.625,16.641 154.336,17.221 154.336,17.946 L154.336,57.226 C154.336,57.951 154.481,58.531 154.77,59.111 C155.204,59.835 155.639,60.415 156.217,61.14 L169.529,75.635 L169.673,76.214 L169.673,134.484 C169.529,136.948 168.371,138.252 166.201,138.252 C164.754,138.252 163.741,137.818 163.162,136.948 C162.873,136.513 162.728,136.078 162.728,135.643 C162.728,135.208 162.583,134.774 162.583,134.049 L162.583,87.666 L154.336,87.666 L154.336,135.208 C154.336,135.788 154.625,136.513 155.06,137.238 C155.494,138.252 156.217,139.122 157.085,139.991 C158.098,140.861 159.4,141.586 160.847,142.166 C162.439,142.89 164.175,143.181 166.201,143.181 C168.226,143.181 169.963,142.89 171.699,142.166 C173.001,141.731 174.304,141.006 175.461,140.136 C176.329,139.267 177.053,138.542 177.631,137.672 C178.065,136.948 178.355,136.223 178.355,135.788 L178.355,77.954 C178.355,76.65 177.921,75.635 177.342,74.62 L164.175,61.43 C163.597,60.705 163.162,60.126 163.017,59.401 L163.017,16.496 C163.017,16.351 163.017,16.206 163.162,15.917 L163.886,15.337 C164.465,14.902 165.333,14.612 166.201,14.612 C167.069,14.612 167.937,14.902 168.661,15.337 L169.384,15.917 L169.673,16.641 L169.673,42.297 L178.065,42.297 L178.065,17.076 C178.065,16.641 177.776,16.061 177.342,15.481 C176.763,14.612 176.04,13.887 175.027,13.163 C174.014,12.438 172.712,11.858 171.265,11.278" id="Fill-3" fill="#000000"></path>
                <path d="M105.141,10.698 C104.128,10.263 102.971,10.119 101.957,10.119 C99.932,10.119 98.34,10.408 97.183,11.133 L95.736,12.148 L94.723,13.163 L93.999,13.163 C92.263,11.133 89.948,10.119 86.765,10.119 C84.884,10.119 83.148,10.553 81.99,11.423 L79.675,13.307 L79.675,10.553 L71.138,10.553 L71.138,141.151 L80.254,141.151 L80.254,17.946 C80.254,17.221 80.543,16.786 80.977,16.351 C81.556,15.917 82.28,15.627 83.148,15.627 C84.016,15.627 84.884,15.917 85.318,16.351 C85.897,16.786 86.041,17.366 86.041,17.946 L86.041,141.151 L95.446,141.151 L95.446,17.511 C95.446,16.786 95.736,16.351 96.315,15.917 C96.893,15.481 97.762,15.192 98.774,15.192 C100.51,15.192 101.523,16.061 101.523,17.656 L101.523,141.151 L110.639,141.151 L110.639,17.656 C110.639,16.786 110.494,15.917 109.916,14.902 C109.482,14.032 108.903,13.307 108.035,12.583 C107.166,11.713 106.298,11.133 105.141,10.698" id="Fill-4" fill="#000000"></path>
                <path d="M136.25,10.988 C135.382,10.698 134.513,10.553 133.79,10.553 L117.44,10.553 L117.44,141.151 L125.976,141.151 L125.976,93.753 L133.066,93.753 L137.696,93.318 C138.854,93.028 139.722,92.594 140.301,92.014 C140.88,91.289 141.024,90.275 141.024,88.97 L141.024,17.366 C141.024,16.351 140.88,15.337 140.301,14.467 C140.012,13.597 139.433,12.872 138.565,12.293 C137.986,11.713 137.118,11.278 136.25,10.988 Z M126.266,17.656 L130.317,17.656 C131.33,17.656 131.909,18.236 131.909,19.54 L131.909,85.781 C131.909,86.071 131.62,86.506 131.475,86.796 C131.185,86.941 130.751,87.086 130.173,87.086 L126.266,87.086 L126.266,17.656 L126.266,17.656 Z" id="Fill-5" fill="#000000"></path>
                <path d="M64.338,10.553 L54.932,10.553 L54.932,136.078 C52.184,136.078 50.447,135.933 49.724,135.643 C49.434,135.498 49.289,135.208 49.145,134.918 L49.145,10.553 L39.306,10.553 L39.306,135.063 C39.306,139.122 41.476,141.151 46.106,141.151 L64.338,141.151 L64.338,10.553" id="Fill-6" fill="#000000"></path>
                <path d="M26.283,10.553 C24.547,9.828 22.811,9.539 20.785,9.539 C18.615,9.539 16.734,9.974 14.853,10.698 C13.406,11.423 12.104,12.293 10.946,13.453 C10.078,14.467 9.355,15.481 8.776,16.641 C8.486,17.656 8.197,18.381 8.197,19.105 L8.197,133.324 C8.197,133.904 8.486,134.629 8.776,135.498 C9.355,136.513 10.078,137.527 10.946,138.397 C11.959,139.557 13.261,140.427 14.563,141.006 C16.3,141.731 18.181,142.021 20.207,142.021 C22.232,142.021 24.113,141.731 25.849,141.006 C27.297,140.281 28.454,139.412 29.611,138.252 C30.48,137.238 31.058,136.078 31.637,134.918 C32.072,133.904 32.216,133.034 32.216,132.309 L32.216,67.808 L20.062,67.808 L20.062,71.142 L23.39,71.142 L23.39,135.353 C23.245,135.788 23.245,136.368 23.1,136.658 C22.522,137.672 21.654,138.252 20.351,138.252 C18.904,138.252 18.036,137.672 17.602,136.658 L17.458,135.353 L17.458,16.496 L17.602,15.627 L18.326,14.902 C18.904,14.322 19.772,14.032 20.641,14.032 C21.509,14.032 22.232,14.322 22.956,14.902 L23.679,15.772 C23.968,16.061 23.968,16.351 23.968,16.496 L23.968,42.297 L32.506,42.297 L32.506,17.946 C32.506,17.366 32.361,16.786 31.927,15.917 C31.348,14.902 30.769,13.887 29.901,13.018 C28.743,12.003 27.586,11.133 26.283,10.553" id="Fill-7" fill="#000000"></path>
                <polygon id="Fill-8" fill="#000000" points="145.365 36.934 149.416 36.934 149.416 5.48 145.365 5.48"></polygon>
            </g>
        </g>
    </g>
</svg>